<svg width="40" height="40" viewBox="0 0 40 40" fill="none" xmlns="http://www.w3.org/2000/svg">
<path d="M30 21.6667V18.3333H36.6667V21.6667H30ZM32 33.3333L26.6667 29.3333L28.6667 26.6667L34 30.6667L32 33.3333ZM28.6667 13.3333L26.6667 10.6667L32 6.66667L34 9.33334L28.6667 13.3333ZM8.33337 31.6667V25H6.66671C5.75004 25 4.9656 24.6739 4.31337 24.0217C3.66115 23.3694 3.33449 22.5844 3.33337 21.6667V18.3333C3.33337 17.4167 3.66004 16.6322 4.31337 15.98C4.96671 15.3278 5.75115 15.0011 6.66671 15H13.3334L21.6667 10V30L13.3334 25H11.6667V31.6667H8.33337ZM23.3334 25.5833V14.4167C24.0834 15.0833 24.6878 15.8961 25.1467 16.855C25.6056 17.8139 25.8345 18.8622 25.8334 20C25.8323 21.1378 25.6028 22.1867 25.145 23.1467C24.6873 24.1067 24.0834 24.9189 23.3334 25.5833Z" fill="#CBCCCB"/>
</svg>
