<svg width="45" height="45" viewBox="0 0 45 45" fill="none" xmlns="http://www.w3.org/2000/svg">
<path d="M41.25 34.8844C41.25 35.2573 41.1018 35.615 40.8381 35.8788C40.5744 36.1425 40.2167 36.2906 39.8438 36.2906H30.2812C29.968 37.4585 29.2783 38.4905 28.3189 39.2265C27.3595 39.9624 26.1842 40.3614 24.975 40.3614C23.7658 40.3614 22.5905 39.9624 21.6311 39.2265C20.6717 38.4905 19.982 37.4585 19.6687 36.2906H5.15625C4.78329 36.2906 4.4256 36.1425 4.16188 35.8788C3.89816 35.615 3.75 35.2573 3.75 34.8844C3.75 34.5114 3.89816 34.1537 4.16188 33.89C4.4256 33.6263 4.78329 33.4781 5.15625 33.4781H19.6687C19.982 32.3102 20.6717 31.2783 21.6311 30.5423C22.5905 29.8063 23.7658 29.4074 24.975 29.4074C26.1842 29.4074 27.3595 29.8063 28.3189 30.5423C29.2783 31.2783 29.968 32.3102 30.2812 33.4781H39.8438C40.2167 33.4781 40.5744 33.6263 40.8381 33.89C41.1018 34.1537 41.25 34.5114 41.25 34.8844ZM41.25 10.1156C41.25 10.4886 41.1018 10.8463 40.8381 11.11C40.5744 11.3737 40.2167 11.5219 39.8438 11.5219H35.25C34.9368 12.6898 34.247 13.7217 33.2877 14.4577C32.3283 15.1937 31.1529 15.5926 29.9438 15.5926C28.7346 15.5926 27.5592 15.1937 26.5998 14.4577C25.6405 13.7217 24.9507 12.6898 24.6375 11.5219H5.15625C4.97158 11.5219 4.78872 11.4855 4.6181 11.4148C4.44749 11.3442 4.29246 11.2406 4.16188 11.11C4.0313 10.9794 3.92771 10.8244 3.85704 10.6538C3.78637 10.4832 3.75 10.3003 3.75 10.1156C3.75 9.93096 3.78637 9.7481 3.85704 9.57748C3.92771 9.40687 4.0313 9.25185 4.16188 9.12126C4.29246 8.99068 4.44749 8.8871 4.6181 8.81643C4.78872 8.74576 4.97158 8.70938 5.15625 8.70938H24.6375C24.9507 7.54149 25.6405 6.50955 26.5998 5.77356C27.5592 5.03758 28.7346 4.63866 29.9438 4.63866C31.1529 4.63866 32.3283 5.03758 33.2877 5.77356C34.247 6.50955 34.9368 7.54149 35.25 8.70938H39.8438C40.0291 8.70686 40.2131 8.74151 40.3849 8.81129C40.5566 8.88107 40.7127 8.98455 40.8437 9.11564C40.9748 9.24673 41.0783 9.40276 41.1481 9.57451C41.2179 9.74627 41.2525 9.93026 41.25 10.1156ZM41.25 22.4906C41.2525 22.676 41.2179 22.86 41.1481 23.0318C41.0783 23.2035 40.9748 23.3595 40.8437 23.4906C40.7127 23.6217 40.5566 23.7252 40.3849 23.795C40.2131 23.8648 40.0291 23.8994 39.8438 23.8969H17.9062C17.593 25.0648 16.9033 26.0967 15.9439 26.8327C14.9845 27.5687 13.8092 27.9676 12.6 27.9676C11.3908 27.9676 10.2155 27.5687 9.25608 26.8327C8.29671 26.0967 7.60695 25.0648 7.29375 23.8969H5.15625C4.78329 23.8969 4.4256 23.7487 4.16188 23.485C3.89816 23.2213 3.75 22.8636 3.75 22.4906C3.75 22.1177 3.89816 21.76 4.16188 21.4963C4.4256 21.2325 4.78329 21.0844 5.15625 21.0844H7.29375C7.60695 19.9165 8.29671 18.8846 9.25608 18.1486C10.2155 17.4126 11.3908 17.0137 12.6 17.0137C13.8092 17.0137 14.9845 17.4126 15.9439 18.1486C16.9033 18.8846 17.593 19.9165 17.9062 21.0844H39.8438C40.2167 21.0844 40.5744 21.2325 40.8381 21.4963C41.1018 21.76 41.25 22.1177 41.25 22.4906Z" fill="#9E9F9E"/>
</svg>
