<svg width="70" height="70" viewBox="0 0 70 70" fill="none" xmlns="http://www.w3.org/2000/svg">
<g clip-path="url(#clip0_614_4450)">
<g filter="url(#filter0_d_614_4450)">
<path d="M58.9877 6L50.4812 6.01649L49.8185 6.01254L49.4895 6.6268L45.329 14.3958L38.1968 14.4123L34.4186 7.36907L34.1006 6.74622L33.4382 6.73831L24.932 6.75467L24.2657 6.75045L23.9401 7.36484L19.8213 15.0596L11.8791 15.0761L11.2164 15.0721L10.8872 15.6865L6.63599 23.6288L6.31036 24.2432L6.64713 24.8618L10.4178 31.8926L6.32926 39.5379L6 40.1523L6.33701 40.771L10.5921 48.7008L10.9062 49.3276L11.5725 49.3316L19.7873 49.3152L23.5463 56.313L23.8606 56.9398L24.5269 56.9441L32.7153 56.9276L36.4933 63.9709L36.8114 64.5935L37.474 64.6019L45.9803 64.5854L46.6238 64.5976L46.9533 63.9832L51.0909 56.2801L59.0333 56.2638L59.6768 56.2762L60.0025 55.6618L64.2763 47.7113L64.6019 47.0969L64.2652 46.4783L60.01 38.5484L59.6957 37.9255L59.0295 37.9176L50.8412 37.934L47.5474 31.7979L51.5377 24.3629L58.9915 24.3464L59.6352 24.3589L59.9607 23.7445L64.2309 15.7941L64.5604 15.1795L64.2232 14.5609L59.9682 6.63102L59.6541 6.00845L58.9878 6.00026L58.9877 6ZM58.3402 8.46181L61.9138 15.2041L58.3365 21.8928L51.1323 21.905L47.5435 15.1877L51.136 8.47026L58.3402 8.46181ZM19.7381 17.5215L23.3117 24.2638L19.7342 30.9525L12.53 30.9649L8.9413 24.2473L12.5338 17.53L19.7381 17.5217V17.5215ZM32.6886 25.1751L36.1448 31.707L32.4652 38.5853L25.4657 38.5977L21.8921 31.9052L25.4846 25.1876L32.6889 25.1752L32.6886 25.1751ZM45.4463 32.7421L49.0048 39.4638L45.4273 46.1567L38.2234 46.1646L34.7443 39.6534L38.4467 32.7545L45.4463 32.7421ZM58.3817 40.3792L61.9554 47.1216L58.3781 53.8103L51.1738 53.8184L47.5852 47.1051L51.1777 40.3875L58.382 40.3792H58.3817ZM32.3934 41.064L35.9557 47.7895L32.3784 54.4782L25.1741 54.4865L21.5854 47.769L25.1663 41.0764L32.3932 41.064H32.3934Z" fill="url(#paint0_linear_614_4450)"/>
</g>
</g>
<defs>
<filter id="filter0_d_614_4450" x="6" y="6" width="106.602" height="143.602" filterUnits="userSpaceOnUse" color-interpolation-filters="sRGB">
<feFlood flood-opacity="0" result="BackgroundImageFix"/>
<feColorMatrix in="SourceAlpha" type="matrix" values="0 0 0 0 0 0 0 0 0 0 0 0 0 0 0 0 0 0 127 0" result="hardAlpha"/>
<feOffset dx="48" dy="85"/>
<feComposite in2="hardAlpha" operator="out"/>
<feColorMatrix type="matrix" values="0 0 0 0 0 0 0 0 0 0 0 0 0 0 0 0 0 0 0.25 0"/>
<feBlend mode="normal" in2="BackgroundImageFix" result="effect1_dropShadow_614_4450"/>
<feBlend mode="normal" in="SourceGraphic" in2="effect1_dropShadow_614_4450" result="shape"/>
</filter>
<linearGradient id="paint0_linear_614_4450" x1="35.301" y1="6" x2="35.301" y2="64.6019" gradientUnits="userSpaceOnUse">
<stop stop-color="#113B6A"/>
<stop offset="1" stop-color="#E4003A"/>
</linearGradient>
<clipPath id="clip0_614_4450">
<rect width="70" height="70" fill="white"/>
</clipPath>
</defs>
</svg>
