<svg width="40" height="40" viewBox="0 0 40 40" fill="none" xmlns="http://www.w3.org/2000/svg">
<g clip-path="url(#clip0_632_4381)">
<path d="M7.85487 11.8802L7.44487 12.8235C7.3808 12.9771 7.2727 13.1083 7.1342 13.2006C6.9957 13.2929 6.83298 13.3422 6.66654 13.3422C6.5001 13.3422 6.33739 13.2929 6.19888 13.2006C6.06038 13.1083 5.95228 12.9771 5.88821 12.8235L5.47821 11.8802C4.75734 10.2114 3.43718 8.87335 1.77821 8.13015L0.513207 7.56515C0.359738 7.49456 0.22973 7.38144 0.138596 7.2392C0.0474618 7.09697 -0.000976562 6.93158 -0.000976562 6.76265C-0.000976563 6.59373 0.0474618 6.42834 0.138596 6.28611C0.22973 6.14387 0.359738 6.03075 0.513207 5.96015L1.70821 5.42849C3.40888 4.66412 4.75164 3.27662 5.45987 1.55182L5.88321 0.533487C5.94514 0.375744 6.05316 0.240317 6.19318 0.144862C6.33321 0.0494073 6.49874 -0.00164795 6.66821 -0.00164795C6.83767 -0.00164795 7.00321 0.0494073 7.14323 0.144862C7.28326 0.240317 7.39128 0.375744 7.45321 0.533487L7.87487 1.55015C8.58236 3.27528 9.92452 4.66338 11.6249 5.42849L12.8215 5.96182C12.9745 6.03262 13.1041 6.14572 13.1949 6.28778C13.2857 6.42983 13.3339 6.5949 13.3339 6.76349C13.3339 6.93208 13.2857 7.09714 13.1949 7.2392C13.1041 7.38125 12.9745 7.49435 12.8215 7.56515L11.5549 8.12849C9.89623 8.87243 8.57666 10.211 7.85654 11.8802M5.10654 36.0218C6.81654 25.7035 10.5199 3.32849 34.9999 3.32849C32.5065 8.32849 30.8332 10.8285 29.1665 12.4952L27.4999 14.1618L29.9999 15.8285C28.3332 20.8285 23.3332 26.6618 16.6665 27.4952C12.2188 28.0507 9.43987 31.1063 8.32987 36.6618H4.99987L5.10654 36.0218Z" fill="url(#paint0_linear_632_4381)"/>
</g>
<defs>
<linearGradient id="paint0_linear_632_4381" x1="17.4994" y1="-0.00164795" x2="17.4994" y2="36.6618" gradientUnits="userSpaceOnUse">
<stop stop-color="#2165B0"/>
<stop offset="1" stop-color="#A51834"/>
</linearGradient>
<clipPath id="clip0_632_4381">
<rect width="40" height="40" fill="white"/>
</clipPath>
</defs>
</svg>
