<svg width="40" height="40" viewBox="0 0 40 40" fill="none" xmlns="http://www.w3.org/2000/svg">
<path fill-rule="evenodd" clip-rule="evenodd" d="M13.75 2.5C13.5537 2.49999 13.3602 2.5462 13.1851 2.63488C13.01 2.72356 12.8583 2.85223 12.7422 3.01046C12.626 3.1687 12.5488 3.35205 12.5167 3.54568C12.4847 3.73931 12.4986 3.93777 12.5575 4.125L12.8325 5H8.75C8.41848 5 8.10054 5.1317 7.86612 5.36612C7.6317 5.60054 7.5 5.91848 7.5 6.25V36.25C7.5 36.5815 7.6317 36.8995 7.86612 37.1339C8.10054 37.3683 8.41848 37.5 8.75 37.5H31.25C31.5815 37.5 31.8995 37.3683 32.1339 37.1339C32.3683 36.8995 32.5 36.5815 32.5 36.25V6.25C32.5 5.91848 32.3683 5.60054 32.1339 5.36612C31.8995 5.1317 31.5815 5 31.25 5H27.17L27.445 4.125C27.5039 3.93757 27.5179 3.73889 27.4857 3.54506C27.4534 3.35124 27.376 3.16774 27.2596 3.00945C27.1432 2.85116 26.9911 2.72255 26.8157 2.63403C26.6403 2.54552 26.4465 2.4996 26.25 2.5H13.75ZM15.45 5H24.55L23.7675 7.5H16.2325L15.45 5ZM27.5 17.5H12.5V15H27.5V17.5ZM27.5 23.75H12.5V21.25H27.5V23.75ZM12.5 30H22.5V27.5H12.5V30Z" fill="#CBCCCB"/>
</svg>
